<svg width="current" height="current" viewBox="0 0 24 24" fill="currentColor" xmlns="http://www.w3.org/2000/svg">
<path d="M8.54487 18.8946L15.4392 12.0003L8.54487 5.10601C8.50825 5.0694 8.47622 5.02994 8.44876 4.98835C8.38491 4.89165 8.34581 4.78342 8.33145 4.67259C8.32728 4.64043 8.3252 4.60805 8.3252 4.57568C8.3252 4.4067 8.38194 4.23773 8.49544 4.09979C8.51087 4.08105 8.52734 4.06287 8.54487 4.04535C8.55859 4.03162 8.57272 4.01853 8.58722 4.00609C8.88188 3.7531 9.32636 3.76619 9.60553 4.04535L17.0301 11.4699C17.1708 11.6106 17.2498 11.8014 17.2498 12.0003C17.2498 12.1992 17.1708 12.3899 17.0301 12.5306L9.60553 19.9552C9.56891 19.9918 9.52946 20.0239 9.48787 20.0513C9.19676 20.2435 8.80115 20.2115 8.54487 19.9552C8.50825 19.9186 8.47622 19.8791 8.44876 19.8376C8.25655 19.5464 8.28858 19.1508 8.54487 18.8946Z" fill="current"/>
</svg>
